<?xml version="1.0" encoding="utf-8"?>
<!-- Generator: Adobe Illustrator 22.0.1, SVG Export Plug-In . SVG Version: 6.00 Build 0)  -->
<svg version="1.1" xmlns="http://www.w3.org/2000/svg" xmlns:xlink="http://www.w3.org/1999/xlink" x="0px" y="0px"
	 viewBox="0 0 772.9 250" style="enable-background:new 0 0 772.9 250;" xml:space="preserve">
<style type="text/css">
	/*.st0{fill:#EE4036;}*/
	.st0{fill:#FFFFFF;}
</style>
<g id="Fundo">
	<rect id="XMLID_21_" x="-187" y="-732.7" class="st0" width="1103.3" height="576.3"/>
</g>
<g id="Logomarca">
	<g id="XMLID_2_">
		<path id="XMLID_375_" class="st0" d="M767,63.7c-7-8.8-30.4-12-55.9-11.8c8.2-19.2,13.3-34,13.8-39.6c0-0.3,0-0.6,0-0.8
			c0-1.2-0.2-2.5-0.8-3.6c-3.1-5.3-20.4-7.6-25.4-3.9c-12.8,9.5-23.9,28.7-32.6,51.7c-10.7,1.8-20,4-26.3,6.6
			c-7.9,2.9-27.1,11.5-24.8,17.8c1.6,4.3,14.8,2.3,41.3,1.2c-3.6,8.7-6.5,15.8-7,17c-25.3,60-47.4,95.3-56.4,95.3
			c-11.8,0-22.1-40.9,28.1-138.8c0.5-1,0.8-2.1,0.3-3.1c-1.8-3.2-8.7-4.6-15-4.7c-14.1,0-36.6,12.5-48.7,12.5
			c-16.1,0,12.1-32.1-17.3-32.1c-20.9,0-31.8,12.7-31.8,23.9c0,17,5.5,22.5,7.7,27.6c-9.8,47.8-36.3,97.1-49.8,97.1
			c-11.8,0-19-33.5,31.2-131.3c0.5-1,0.8-2.1,0.3-3.1c-2.9-5.1-18.5-5.5-24.1-3.7c-6,2-12.1,9.1-17.9,19.1
			c-1.2-14.9-8.3-20.6-20.6-20.6c-33,0-67.9,36.7-76.7,89.6l0,0c-5.5,29.2-13.5,38.8-20,38.8c-16.2,0,6.6-59.6,6.6-93.6
			c0-12-3.4-23.5-14.1-23.5c-17.9,0-34,22.6-47.1,47c0.3-3.7,0.5-7,0.5-9.6c0-23.3-5.4-29.8-16.2-29.8c-22.2,0-40.5,31.2-54.2,59.2
			c3.7-37.1,3.1-69.5-10.7-69.5c-19.6,0-29.2,16.4-29.2,24.7c0,7.8,13.1-1,11.4,22.7c-1.4,19.3-17.2,132.1-13.9,136.4
			c5.9,7.7,24.9,0.7,26.9-12.5c6.4-37,35.8-114,46.3-114c15.3,0-5.6,106.9-3.6,109.5c5.9,7.7,24.9,0.7,26.9-12.5
			c6.4-37,26.9-104.6,37.4-104.6c13.8,0-2.1,45.7-2.1,76.9c0,19.5,7,31.5,17.8,31.5c13.1,0,27.5-11.9,38.2-31.1
			c4.5,14,13.7,23.7,24.8,23.7c21.7,0,38.2-14.7,50.2-35.1c0.6,22.1,8.1,37.7,30.5,37.7c44.6,0,76.1-106.4,76.1-106.4
			c8.5,4.5,23.1,3.9,31.9,0.2c-11.5,52.4-26,124,18.6,124c19.7,0,35-21.2,53.2-45.3c1.4,45.8,27.4,76.4,52.6,76.4
			c8.3,0,16.2-5.6,16.2-10c0-7.9-41.3,4.9-41.3-62.3c0-14.3,15.9-60.3,27.9-94c19.3,0.5,42.1,2.1,68.5,5.5c1.1,0.1,2.1,0.1,2.8-0.8
			C774.9,81.7,770.4,68,767,63.7z M403.5,167.4c-8.4,0-16.8-6.5-16.8-25.3c0-29.9,20.4-70.6,42-70.6c10.6,0,14.7,11.1,14.7,27
			C443.4,126.2,421.8,167.4,403.5,167.4z M165.7,177.2c-5,40-51.1,70.3-99.7,70.3S-1.3,225,0.7,203c3.3-37.2,42.1-46.8,49.2-46.8
			c7,0,9.8,3.8,9.6,6.2c-0.6,6.2-24.9,6.9-26.7,26.2c-1.8,19.3,19.8,31.7,50,31.7s43.7-14.8,45.3-28.6c5.5-47.2-100-68.2-93.9-134
			c3.5-37.2,49.9-55.4,75.7-55.4c40,0,57.5,29.2,55.8,43.3c-1.7,14.1-14.7,23.8-24.4,23.8c-21.1,0-4.9-47.9-37.5-47.9
			c-13,0-30,10.7-31.5,24.8C67.5,92.1,173.4,114.8,165.7,177.2z"/>
	</g>
</g>
</svg>
